<svg width="69" height="31" viewBox="0 0 69 31" fill="none" xmlns="http://www.w3.org/2000/svg">
<path d="M11.5098 22.668C16.4605 17.3167 23.2039 12.3103 31.5089 9.99712C34.032 9.29102 37.4935 8.75006 39.8545 10.0503C42.8773 11.762 41.7586 16.9029 37.5909 17.1721C35.3292 17.3049 34.0445 15.4863 34.7402 14.0457C35.0905 13.1932 35.9395 12.5168 36.9121 11.9507C45.0777 6.95879 57.1655 4.83945 66.9742 8.39415" stroke="#54C7E2" stroke-width="1.5" stroke-miterlimit="10" stroke-linecap="round" stroke-linejoin="round"/>
<path d="M18.1567 24.9302C15.4951 25.1991 6.25757 29.3241 3.66017 29.5157C4.15853 28.5713 4.46922 27.5937 4.86385 26.6015C5.30287 25.4697 5.47028 24.3195 5.55374 23.184" stroke="#54C7E2" stroke-width="1.5" stroke-miterlimit="10" stroke-linecap="round" stroke-linejoin="round"/>
</svg>
