<svg width="53" height="27" viewBox="0 0 53 27" fill="none" xmlns="http://www.w3.org/2000/svg">
<path d="M9.36133 18.8506C13.0411 13.4993 18.0534 8.49296 24.2264 6.17974C26.1018 5.47364 28.6746 4.93268 30.4295 6.23293C32.6763 7.94457 31.8448 13.0855 28.747 13.3548C27.0659 13.4876 26.1111 11.6689 26.6281 10.2284C26.8885 9.37578 27.5196 8.69946 28.2425 8.13336C34.3118 3.14141 43.2965 1.02206 50.5871 4.57677" stroke="#EC008C" stroke-width="1.5" stroke-miterlimit="10" stroke-linecap="round" stroke-linejoin="round"/>
<path d="M14.3019 21.1138C12.3236 21.3826 5.45751 25.5076 3.52691 25.6993C3.89733 24.7548 4.12826 23.7773 4.42158 22.7851C4.74789 21.6532 4.87233 20.5031 4.93437 19.3676" stroke="#EC008C" stroke-width="1.5" stroke-miterlimit="10" stroke-linecap="round" stroke-linejoin="round"/>
</svg>
