<svg width="167" height="56" viewBox="0 0 167 56" fill="none" xmlns="http://www.w3.org/2000/svg">
<path d="M26.5147 16.4313C26.4684 16.4313 26.4189 16.4313 26.3693 16.4247C25.5865 16.3454 25.0118 15.6451 25.091 14.8623C25.1142 14.6113 25.6361 8.6261 21.1934 8.11412C19.3569 7.90272 17.9828 8.70867 16.9985 10.5749C16.186 12.1141 15.9779 13.7789 15.9779 13.7954C15.8887 14.5782 15.1851 15.1398 14.399 15.0506C13.6162 14.9614 13.0546 14.2545 13.1438 13.4717C13.1537 13.3825 13.4048 11.2785 14.475 9.24707C16.0043 6.34037 18.5047 4.93326 21.5204 5.28008C27.3107 5.944 28.2488 12.025 27.935 15.1497C27.8623 15.8863 27.2413 16.4346 26.518 16.4346L26.5147 16.4313Z" fill="#EC008C"/>
<path d="M31.0788 43.77C30.9896 43.77 30.9038 43.7634 30.8146 43.7535L10.0449 41.2101C9.4437 41.1375 8.902 40.8138 8.54857 40.3249C8.19514 39.8328 8.06302 39.2184 8.18193 38.6238L11.8847 20.4107C12.1225 19.2348 13.2687 18.4751 14.4446 18.7162C15.6204 18.954 16.3769 20.1002 16.139 21.2761L12.9053 37.187L29.0507 39.1655L29.8005 26.6997C29.8732 25.504 30.9038 24.5924 32.0995 24.6617C33.2952 24.7344 34.2068 25.7617 34.1375 26.9607L33.249 41.7287C33.2126 42.3266 32.9319 42.8848 32.4727 43.268C32.0797 43.595 31.5875 43.77 31.0821 43.77H31.0788Z" fill="#EC008C"/>
<path d="M30.6373 50.8752C30.5448 50.8752 30.4523 50.8685 30.3599 50.8586L6.37955 47.7967C2.72635 47.3772 0.0739859 44.0345 0.493476 40.3516C0.500082 40.2921 0.509992 40.2327 0.519901 40.1765L5.12108 17.0517C5.34569 15.3077 6.22761 13.7453 7.60829 12.6487C9.0154 11.5323 10.7726 11.0302 12.5563 11.235L28.3582 13.2234C30.1187 13.4249 31.7174 14.3134 32.8339 15.7173C33.9503 17.1244 34.4524 18.8816 34.2476 20.6653C34.1122 21.8577 33.032 22.7132 31.8429 22.5744C30.6505 22.439 29.795 21.3622 29.9338 20.1698C30.0064 19.5389 29.8281 18.9146 29.4317 18.4159C29.0353 17.9171 28.4705 17.6033 27.8396 17.5306L12.0377 15.5422C10.7561 15.3935 9.57362 16.3349 9.42498 17.6396C9.41838 17.6991 9.40847 17.7586 9.39856 17.8147L4.80399 40.9164C4.69829 42.1914 5.62645 43.3342 6.90474 43.4796L30.9115 46.5448C32.1006 46.6968 32.9429 47.7835 32.7909 48.9726C32.6522 50.0692 31.7174 50.8685 30.6406 50.8685L30.6373 50.8752Z" fill="#EC008C"/>
<path d="M56.9854 20.183C57.1377 20.0761 57.2803 20.008 57.4163 19.9789C57.5524 19.953 57.6561 19.9368 57.7339 19.9368C57.9185 19.9368 58.0838 19.9756 58.2361 20.0502C58.3883 20.1247 58.5439 20.2899 58.7059 20.5362L60.5235 23.2805C60.5786 23.368 60.6305 23.4652 60.6791 23.5721C60.7277 23.679 60.7536 23.7665 60.7536 23.8313C60.7536 24.0808 60.6758 24.2849 60.5171 24.4404C60.3583 24.5959 60.1898 24.7353 60.0051 24.8551C59.1174 25.4707 58.1453 25.9665 57.0923 26.3391C56.0361 26.7117 54.9215 26.8996 53.7421 26.8996C52.7669 26.8996 51.8305 26.7765 50.9265 26.527C50.0226 26.2775 49.1802 25.9243 48.4025 25.4643C47.6249 25.0042 46.9089 24.4534 46.2609 23.8086C45.6129 23.1638 45.0588 22.4478 44.6052 21.6572C44.1516 20.8666 43.7952 20.0145 43.5425 19.1008C43.2898 18.1871 43.1602 17.2313 43.1602 16.2366C43.1602 15.2419 43.2865 14.2829 43.5425 13.3627C43.7952 12.4425 44.1516 11.5904 44.6052 10.8063C45.0588 10.0222 45.6129 9.30942 46.2609 8.66465C46.9089 8.01988 47.6249 7.47232 48.4025 7.01871C49.1802 6.56511 50.0226 6.21194 50.9265 5.96246C51.8305 5.71298 52.7669 5.58986 53.7421 5.58986C54.9215 5.58986 56.0102 5.74538 57.0113 6.05966C58.0125 6.37394 58.9521 6.83727 59.8269 7.45612L59.7783 7.40752C60.0148 7.54684 60.206 7.71208 60.3453 7.90324C60.4847 8.09117 60.5559 8.32769 60.5559 8.60957C60.5559 8.80397 60.4911 9.00486 60.3615 9.20898L58.9165 11.6584C58.6119 12.1898 58.2458 12.4555 57.8116 12.4555C57.7144 12.4555 57.5945 12.4296 57.4552 12.381C57.3159 12.3324 57.1571 12.2481 56.9854 12.1283C56.5091 11.814 55.9972 11.558 55.4529 11.3571C54.9053 11.1562 54.3253 11.0558 53.7097 11.0558C53.0293 11.0558 52.4008 11.1951 51.8273 11.4705C51.2538 11.7459 50.7645 12.1218 50.3595 12.5981C49.9545 13.0743 49.637 13.6252 49.4102 14.2537C49.1834 14.8823 49.07 15.54 49.07 16.2334C49.07 16.9268 49.1834 17.6169 49.4102 18.239C49.637 18.8611 49.9545 19.3989 50.3595 19.8525C50.7645 20.3061 51.2538 20.6658 51.8273 20.9314C52.4008 21.1971 53.0293 21.33 53.7097 21.33C54.3253 21.33 54.9053 21.223 55.4464 21.006C55.9875 20.7889 56.5026 20.5135 56.9886 20.1798L56.9854 20.183Z" fill="#54C7E2"/>
<path d="M85.0476 25.3282C85.0476 25.5129 85.0152 25.6878 84.9504 25.8563C84.8856 26.0248 84.7786 26.1576 84.6264 26.2548C84.5065 26.3747 84.3672 26.4492 84.2052 26.4816C84.0432 26.514 83.9006 26.5302 83.784 26.5302H80.586C80.3592 26.5302 80.1745 26.5011 80.0352 26.4395C79.8959 26.3812 79.7825 26.297 79.695 26.1868C79.6075 26.0799 79.5363 25.947 79.4747 25.7883C79.4164 25.6327 79.3516 25.461 79.2868 25.2763L79.0762 24.5473C78.7846 24.8389 78.4509 25.1273 78.0782 25.4059C77.7056 25.6878 77.2942 25.9405 76.8438 26.1609C76.3934 26.3812 75.9139 26.5594 75.3987 26.6955C74.8836 26.8316 74.3522 26.8996 73.8014 26.8996C72.8164 26.8996 71.8736 26.7765 70.9696 26.527C70.0656 26.2775 69.2232 25.9243 68.4391 25.4643C67.655 25.0042 66.9422 24.4534 66.3039 23.8086C65.6657 23.1638 65.1181 22.4478 64.658 21.6572C64.1979 20.8666 63.8447 20.0145 63.5953 19.1008C63.3458 18.1871 63.2227 17.2313 63.2227 16.2366C63.2227 14.7332 63.4981 13.3336 64.0521 12.0408C64.6029 10.748 65.3546 9.6237 66.3072 8.66465C67.2597 7.7056 68.3776 6.95391 69.6671 6.40958C70.9534 5.86202 72.3337 5.58986 73.8046 5.58986C74.4753 5.58986 75.1006 5.66438 75.6806 5.81666C76.2606 5.96894 76.7887 6.17306 77.2715 6.43227C77.7542 6.69147 78.1884 7.00251 78.5772 7.3654C78.966 7.72828 79.3062 8.12033 79.6011 8.54153L80.0709 7.06407C80.1778 6.79515 80.2685 6.57483 80.3398 6.40634C80.4111 6.23786 80.4856 6.11474 80.5666 6.03374C80.6476 5.95274 80.748 5.89766 80.8679 5.87174C80.9878 5.84582 81.153 5.82962 81.3701 5.82962H83.7872C83.9071 5.82962 84.0464 5.84582 84.2084 5.87822C84.3704 5.91062 84.5097 5.98514 84.6296 6.10502C84.7819 6.2249 84.8888 6.35774 84.9536 6.51003C85.0184 6.66231 85.0508 6.83403 85.0508 7.02843V25.3185L85.0476 25.3282ZM69.0612 16.2399C69.0612 16.9527 69.1714 17.6234 69.3949 18.2455C69.6153 18.8675 69.9328 19.4054 70.3443 19.859C70.7558 20.3126 71.2515 20.6722 71.8282 20.9379C72.4082 21.2036 73.0465 21.3364 73.7528 21.3364C74.4591 21.3364 75.1525 21.2036 75.7746 20.9379C76.3967 20.6722 76.9377 20.3126 77.3978 19.859C77.8579 19.4054 78.2176 18.8675 78.4768 18.2455C78.736 17.6234 78.8656 16.9559 78.8656 16.2399C78.8656 15.5238 78.736 14.8888 78.4768 14.2602C78.2176 13.6316 77.8579 13.0808 77.3978 12.6045C76.9377 12.1283 76.3967 11.7524 75.7746 11.477C75.1525 11.2016 74.4786 11.0623 73.7528 11.0623C73.027 11.0623 72.4082 11.2016 71.8282 11.477C71.2482 11.7524 70.7558 12.1283 70.3443 12.6045C69.9328 13.0808 69.6153 13.6316 69.3949 14.2602C69.1746 14.8888 69.0612 15.5465 69.0612 16.2399Z" fill="#54C7E2"/>
<path d="M88.9437 7.11683C88.9437 6.91271 88.9825 6.73126 89.0571 6.58222C89.1316 6.42994 89.232 6.30682 89.3584 6.20962C89.4815 6.11242 89.6241 6.0379 89.7796 5.98929C89.9351 5.94069 90.0906 5.91477 90.2429 5.91477H92.6924C92.9613 5.91477 93.1784 5.99577 93.3404 6.15778C93.5024 6.31978 93.6417 6.52714 93.7551 6.77338C93.8685 7.02287 93.969 7.29827 94.0565 7.59959C94.1439 7.90416 94.2444 8.19576 94.3643 8.47441C94.6883 8.118 95.009 7.76484 95.3298 7.41815C95.6473 7.07147 95.9908 6.76366 96.3601 6.49474C96.7262 6.22582 97.1313 6.00549 97.5687 5.83701C98.0061 5.66853 98.5083 5.58429 99.0688 5.58429C99.6293 5.58429 100.174 5.62641 100.634 5.71389C101.094 5.80137 101.528 5.92773 101.939 6.09622C102.351 6.2647 102.759 6.47854 103.164 6.73774C103.569 6.99695 104.01 7.30151 104.486 7.64496C104.953 7.91712 105.183 8.23464 105.183 8.60401C105.183 8.84053 105.092 9.11917 104.907 9.43022L103.43 11.9445C103.138 12.3657 102.775 12.5763 102.341 12.5763C102.124 12.5763 101.881 12.518 101.612 12.3981C101.146 11.9445 100.673 11.6043 100.193 11.384C99.7103 11.1636 99.1628 11.0502 98.5472 11.0502C98.1259 11.0502 97.7533 11.1086 97.4358 11.2284C97.1183 11.3483 96.8267 11.5168 96.5675 11.7306C96.3083 11.9477 96.0653 12.2069 95.8385 12.5083C95.6117 12.8128 95.3849 13.1465 95.1581 13.5159V25.2675C95.1581 25.679 95.0576 25.9901 94.8567 26.2007C94.6559 26.4113 94.3221 26.5182 93.8588 26.5182H90.2073C89.3649 26.5182 88.9404 26.1035 88.9404 25.2675V7.10711L88.9437 7.11683Z" fill="#54C7E2"/>
<path d="M108.873 2.70021C108.873 2.36648 108.983 2.11376 109.207 1.94528C109.427 1.7768 109.744 1.61803 110.156 1.46575L113.84 0.182696C113.895 0.172976 113.943 0.166496 113.992 0.166496H114.131C114.53 0.166496 114.799 0.283138 114.935 0.516421C115.071 0.749704 115.139 1.05427 115.139 1.43335L115.123 5.89813H117.346C117.692 5.89813 117.974 6.00181 118.188 6.20593C118.405 6.41005 118.512 6.7211 118.512 7.13258V10.2657C118.512 10.7193 118.402 11.053 118.188 11.2636C117.971 11.4742 117.689 11.5812 117.346 11.5812H115.123L115.139 25.28C115.139 25.6915 115.019 26.0026 114.783 26.2132C114.543 26.4238 114.216 26.5307 113.791 26.5307H110.123C109.291 26.5307 108.873 26.116 108.873 25.28L108.857 11.5812H107.185C106.352 11.5812 105.934 11.1438 105.934 10.2657V7.13258C105.934 6.30961 106.349 5.89813 107.185 5.89813H108.857L108.873 2.70021Z" fill="#54C7E2"/>
<path d="M140.698 26.2526C140.559 26.3725 140.41 26.447 140.251 26.4794C140.092 26.5118 139.947 26.528 139.804 26.528H137.355C137.16 26.528 136.992 26.4924 136.852 26.4211C136.713 26.3498 136.593 26.2559 136.496 26.1392C136.399 26.0194 136.318 25.8865 136.253 25.7342C136.188 25.582 136.133 25.4264 136.091 25.2644L135.751 23.6768C135.589 24.0105 135.317 24.3637 134.941 24.7363C134.562 25.1089 134.095 25.4524 133.538 25.7634C132.981 26.0777 132.339 26.3369 131.613 26.541C130.887 26.7451 130.097 26.8488 129.245 26.8488C128.01 26.8488 126.918 26.6123 125.966 26.136C125.013 25.6597 124.21 25.0117 123.555 24.1887C122.901 23.3658 122.405 22.4067 122.071 21.3083C121.738 20.21 121.569 19.0403 121.569 17.7961V7.16557C121.569 6.75408 121.657 6.44304 121.838 6.23244C122.016 6.02183 122.301 5.91491 122.69 5.91491H126.439C126.905 5.91491 127.223 5.99267 127.398 6.15144C127.57 6.3102 127.657 6.61476 127.657 7.06837V17.6439C127.657 18.1104 127.748 18.5511 127.926 18.969C128.104 19.387 128.344 19.7531 128.649 20.0739C128.95 20.3947 129.306 20.6441 129.711 20.8288C130.116 21.0135 130.547 21.1042 131.001 21.1042C131.39 21.1042 131.811 21.0394 132.268 20.9098C132.721 20.7802 133.146 20.5761 133.535 20.3007C133.923 20.0253 134.247 19.6689 134.51 19.238C134.769 18.8038 134.899 18.2854 134.899 17.6795V7.12021C134.899 6.93553 134.934 6.75084 135.002 6.5694C135.074 6.38472 135.177 6.2454 135.32 6.1482C135.459 6.06072 135.592 6.00239 135.718 5.96999C135.845 5.93759 135.987 5.92139 136.149 5.92139H139.817C140.284 5.92139 140.617 6.03479 140.825 6.2616C141.029 6.4884 141.132 6.79296 141.132 7.17205V25.3357C141.132 25.5398 141.087 25.731 140.993 25.9027C140.899 26.0744 140.773 26.2105 140.611 26.3077L140.708 26.2591L140.698 26.2526Z" fill="#54C7E2"/>
<path d="M145.433 6.10826C145.572 5.98838 145.718 5.91386 145.87 5.88146C146.022 5.84906 146.168 5.83286 146.308 5.83286H148.757C148.961 5.83286 149.133 5.86526 149.269 5.93006C149.405 5.99486 149.515 6.08558 149.603 6.19898C149.69 6.31238 149.761 6.44199 149.823 6.58779C149.881 6.73359 149.94 6.89235 149.995 7.06731L150.675 9.03078C150.976 8.64197 151.284 8.24345 151.592 7.83844C151.9 7.43344 152.266 7.06407 152.687 6.73359C153.108 6.40311 153.614 6.13094 154.197 5.91386C154.78 5.69678 155.496 5.58986 156.339 5.58986C157.823 5.58986 159.187 5.86202 160.437 6.40959C161.688 6.95715 162.764 7.70884 163.668 8.66465C164.572 9.62371 165.278 10.748 165.787 12.0408C166.295 13.3336 166.548 14.7332 166.548 16.2366C166.548 17.74 166.295 19.1267 165.787 20.4228C165.278 21.7188 164.572 22.8496 163.668 23.8054C162.764 24.7644 161.688 25.5161 160.437 26.0702C159.187 26.6242 157.823 26.8964 156.339 26.8964C155.636 26.8964 155.03 26.8121 154.521 26.6436C154.012 26.4752 153.562 26.2581 153.167 25.9859C152.771 25.717 152.422 25.4189 152.12 25.0949C151.816 24.7709 151.521 24.4469 151.229 24.1196V31.6819C151.229 32.0059 151.132 32.2813 150.938 32.5081C150.743 32.7349 150.439 32.8483 150.03 32.8483H146.314C146.184 32.8483 146.045 32.8224 145.893 32.7673C145.741 32.7122 145.601 32.6377 145.472 32.5405C145.342 32.4433 145.235 32.3202 145.148 32.1744C145.06 32.0286 145.018 31.8633 145.018 31.6787V7.03491C145.018 6.81783 145.057 6.63963 145.138 6.50031C145.219 6.36099 145.319 6.23138 145.439 6.1115L145.433 6.10826ZM160.593 16.2366C160.593 15.5433 160.48 14.8888 160.253 14.2634C160.026 13.6414 159.705 13.097 159.294 12.6337C158.882 12.1671 158.39 11.801 157.816 11.5288C157.243 11.2599 156.611 11.1238 155.918 11.1238C155.224 11.1238 154.589 11.2502 153.977 11.5062C153.364 11.7589 152.83 12.1056 152.37 12.5462C151.91 12.9836 151.537 13.502 151.249 14.095C150.964 14.6911 150.802 15.3229 150.769 15.9936V16.2366C150.769 16.9494 150.905 17.6234 151.174 18.2487C151.443 18.8773 151.812 19.4184 152.279 19.8784C152.746 20.3385 153.29 20.7046 153.918 20.9736C154.547 21.2425 155.211 21.3786 155.914 21.3786C156.617 21.3786 157.239 21.2425 157.813 20.9736C158.386 20.7046 158.879 20.3385 159.29 19.8784C159.702 19.4184 160.019 18.874 160.249 18.2487C160.476 17.6201 160.59 16.9494 160.59 16.2366H160.593Z" fill="#54C7E2"/>
<path d="M49.309 47.1479C48.7454 47.1479 48.1626 47.0967 47.5606 46.9942C46.9714 46.8917 46.4334 46.7188 45.9467 46.4754C45.6905 46.3473 45.5048 46.1872 45.3895 45.9951C45.2871 45.7902 45.2422 45.5852 45.255 45.3803C45.2678 45.1753 45.3319 44.9896 45.4472 44.8231C45.5753 44.6566 45.7354 44.5477 45.9275 44.4965C46.1324 44.4324 46.3566 44.4516 46.6 44.5541C47.1251 44.7719 47.6055 44.9256 48.041 45.0152C48.4765 45.1049 48.9055 45.1497 49.3282 45.1497C49.879 45.1497 50.2761 45.0665 50.5195 44.8999C50.7756 44.7206 50.9037 44.4901 50.9037 44.2083C50.9037 43.9521 50.8205 43.76 50.654 43.6319C50.4874 43.5038 50.2441 43.4141 49.9239 43.3629L47.9065 42.9978C47.1123 42.8569 46.4975 42.5687 46.062 42.1332C45.6393 41.6849 45.4279 41.1149 45.4279 40.4233C45.4279 39.7828 45.6073 39.232 45.9659 38.7709C46.3246 38.297 46.8177 37.9383 47.4453 37.695C48.0858 37.4388 48.8095 37.3107 49.6164 37.3107C50.1928 37.3107 50.7244 37.3619 51.2111 37.4644C51.6979 37.5669 52.1654 37.7334 52.6137 37.964C52.8443 38.0792 53.0044 38.2329 53.094 38.4251C53.1965 38.6172 53.2285 38.8157 53.1901 39.0207C53.1645 39.2256 53.0876 39.4114 52.9595 39.5779C52.8315 39.7444 52.6649 39.8533 52.46 39.9045C52.2679 39.9557 52.0437 39.9301 51.7875 39.8276C51.3777 39.6355 50.9998 39.501 50.654 39.4242C50.3081 39.3345 49.9751 39.2897 49.6549 39.2897C49.0785 39.2897 48.6622 39.3857 48.406 39.5779C48.1498 39.7572 48.0217 39.9878 48.0217 40.2696C48.0217 40.4873 48.0922 40.673 48.2331 40.8267C48.3868 40.9676 48.6173 41.0637 48.9248 41.1149L50.9422 41.48C51.7747 41.6209 52.4088 41.9027 52.8443 42.3254C53.2798 42.7353 53.4975 43.2988 53.4975 44.0161C53.4975 44.9896 53.1133 45.7581 52.3447 46.3217C51.589 46.8725 50.5771 47.1479 49.309 47.1479ZM60.6292 47.1479C59.5149 47.1479 58.5542 46.9494 57.7472 46.5523C56.9531 46.1424 56.3383 45.5724 55.9028 44.8423C55.4801 44.0994 55.2687 43.2284 55.2687 42.2293C55.2687 41.2558 55.4737 40.404 55.8836 39.6739C56.2934 38.931 56.8634 38.3546 57.5935 37.9447C58.3365 37.5221 59.1754 37.3107 60.1105 37.3107C60.7893 37.3107 61.4042 37.426 61.955 37.6565C62.5057 37.8743 62.9797 38.1945 63.3767 38.6172C63.7738 39.0271 64.0748 39.533 64.2798 40.1351C64.4847 40.7243 64.5872 41.3839 64.5872 42.114C64.5872 42.3574 64.5103 42.5431 64.3566 42.6712C64.2029 42.7865 63.9787 42.8441 63.6841 42.8441H57.6512V41.3455H62.4929L62.1855 41.6145C62.1855 41.0893 62.1087 40.6538 61.955 40.308C61.8012 39.9493 61.5771 39.6803 61.2825 39.501C61.0007 39.3217 60.6484 39.232 60.2258 39.232C59.7518 39.232 59.3484 39.3409 59.0153 39.5587C58.6823 39.7764 58.4261 40.0902 58.2468 40.5001C58.0675 40.91 57.9778 41.4031 57.9778 41.9795V42.1332C57.9778 43.1067 58.202 43.824 58.6503 44.2851C59.1114 44.7462 59.7903 44.9768 60.6869 44.9768C60.9943 44.9768 61.3465 44.9384 61.7436 44.8615C62.1407 44.7847 62.5121 44.663 62.858 44.4965C63.1526 44.3556 63.4152 44.3107 63.6457 44.362C63.8763 44.4004 64.0556 44.5029 64.1837 44.6694C64.3118 44.8359 64.3822 45.028 64.395 45.2458C64.4207 45.4635 64.3758 45.6813 64.2605 45.899C64.1453 46.104 63.9531 46.2769 63.6841 46.4178C63.2486 46.6612 62.7555 46.8405 62.2047 46.9558C61.6668 47.0839 61.1416 47.1479 60.6292 47.1479ZM70.2518 47.1479C69.1118 47.1479 68.26 46.8341 67.6964 46.2064C67.1328 45.566 66.851 44.6182 66.851 43.3629V34.6977C66.851 34.211 66.9727 33.8459 67.2161 33.6026C67.4723 33.3464 67.8373 33.2183 68.3112 33.2183C68.7724 33.2183 69.1246 33.3464 69.368 33.6026C69.6241 33.8459 69.7522 34.211 69.7522 34.6977V43.2476C69.7522 43.7728 69.8611 44.1634 70.0789 44.4196C70.3094 44.663 70.6104 44.7847 70.9819 44.7847C71.0843 44.7847 71.1804 44.7783 71.2701 44.7655C71.3597 44.7526 71.4558 44.7462 71.5583 44.7462C71.7632 44.7206 71.9041 44.7847 71.981 44.9384C72.0706 45.0793 72.1155 45.3675 72.1155 45.803C72.1155 46.1872 72.0386 46.4818 71.8849 46.6868C71.7312 46.8789 71.4942 47.007 71.174 47.071C71.0459 47.0839 70.8986 47.0967 70.7321 47.1095C70.5656 47.1351 70.4055 47.1479 70.2518 47.1479ZM77.2263 47.1479C76.0864 47.1479 75.2346 46.8341 74.671 46.2064C74.1074 45.566 73.8256 44.6182 73.8256 43.3629V34.6977C73.8256 34.211 73.9473 33.8459 74.1906 33.6026C74.4468 33.3464 74.8119 33.2183 75.2858 33.2183C75.7469 33.2183 76.0992 33.3464 76.3425 33.6026C76.5987 33.8459 76.7268 34.211 76.7268 34.6977V43.2476C76.7268 43.7728 76.8357 44.1634 77.0534 44.4196C77.284 44.663 77.585 44.7847 77.9564 44.7847C78.0589 44.7847 78.155 44.7783 78.2446 44.7655C78.3343 44.7526 78.4304 44.7462 78.5328 44.7462C78.7378 44.7206 78.8787 44.7847 78.9555 44.9384C79.0452 45.0793 79.09 45.3675 79.09 45.803C79.09 46.1872 79.0132 46.4818 78.8595 46.6868C78.7058 46.8789 78.4688 47.007 78.1486 47.071C78.0205 47.0839 77.8732 47.0967 77.7067 47.1095C77.5402 47.1351 77.38 47.1479 77.2263 47.1479ZM85.6057 47.1479C84.4913 47.1479 83.5307 46.9494 82.7237 46.5523C81.9296 46.1424 81.3148 45.5724 80.8793 44.8423C80.4566 44.0994 80.2452 43.2284 80.2452 42.2293C80.2452 41.2558 80.4502 40.404 80.86 39.6739C81.2699 38.931 81.8399 38.3546 82.57 37.9447C83.3129 37.5221 84.1519 37.3107 85.087 37.3107C85.7658 37.3107 86.3807 37.426 86.9314 37.6565C87.4822 37.8743 87.9561 38.1945 88.3532 38.6172C88.7503 39.0271 89.0513 39.533 89.2562 40.1351C89.4612 40.7243 89.5636 41.3839 89.5636 42.114C89.5636 42.3574 89.4868 42.5431 89.3331 42.6712C89.1794 42.7865 88.9552 42.8441 88.6606 42.8441H82.6277V41.3455H87.4694L87.162 41.6145C87.162 41.0893 87.0851 40.6538 86.9314 40.308C86.7777 39.9493 86.5536 39.6803 86.259 39.501C85.9772 39.3217 85.6249 39.232 85.2022 39.232C84.7283 39.232 84.3248 39.3409 83.9918 39.5587C83.6588 39.7764 83.4026 40.0902 83.2233 40.5001C83.044 40.91 82.9543 41.4031 82.9543 41.9795V42.1332C82.9543 43.1067 83.1784 43.824 83.6268 44.2851C84.0879 44.7462 84.7667 44.9768 85.6634 44.9768C85.9708 44.9768 86.323 44.9384 86.7201 44.8615C87.1172 44.7847 87.4886 44.663 87.8345 44.4965C88.1291 44.3556 88.3916 44.3107 88.6222 44.362C88.8528 44.4004 89.0321 44.5029 89.1602 44.6694C89.2883 44.8359 89.3587 45.028 89.3715 45.2458C89.3971 45.4635 89.3523 45.6813 89.237 45.899C89.1217 46.104 88.9296 46.2769 88.6606 46.4178C88.2251 46.6612 87.732 46.8405 87.1812 46.9558C86.6432 47.0839 86.1181 47.1479 85.6057 47.1479ZM93.3261 47.1095C92.8394 47.1095 92.468 46.9814 92.2118 46.7252C91.9556 46.469 91.8275 46.104 91.8275 45.63V38.8093C91.8275 38.3354 91.9492 37.9768 92.1926 37.7334C92.4487 37.4772 92.801 37.3491 93.2493 37.3491C93.7104 37.3491 94.0627 37.4772 94.306 37.7334C94.5494 37.9768 94.6711 38.3354 94.6711 38.8093V39.8084H94.4789C94.6326 39.0399 94.9721 38.4443 95.4972 38.0216C96.0224 37.5989 96.7013 37.3619 97.5338 37.3107C97.8541 37.2851 98.0974 37.3683 98.264 37.5605C98.4433 37.7398 98.5393 38.0408 98.5522 38.4635C98.5778 38.8606 98.4945 39.1744 98.3024 39.405C98.1231 39.6355 97.8156 39.7764 97.3801 39.8276L96.9382 39.8661C96.2081 39.9301 95.6638 40.1415 95.3051 40.5001C94.9593 40.8588 94.7864 41.3775 94.7864 42.0564V45.63C94.7864 46.104 94.6583 46.469 94.4021 46.7252C94.1587 46.9814 93.8001 47.1095 93.3261 47.1095ZM110.856 47.1479C109.832 47.1479 108.935 46.9494 108.167 46.5523C107.411 46.1424 106.828 45.566 106.418 44.8231C106.008 44.0802 105.803 43.2028 105.803 42.1909C105.803 41.4352 105.919 40.7563 106.149 40.1543C106.38 39.5523 106.713 39.0399 107.148 38.6172C107.597 38.1945 108.135 37.8743 108.762 37.6565C109.39 37.426 110.088 37.3107 110.856 37.3107C111.254 37.3107 111.676 37.3619 112.125 37.4644C112.573 37.5541 113.015 37.7142 113.45 37.9447C113.706 38.06 113.879 38.2265 113.969 38.4443C114.071 38.6492 114.11 38.867 114.084 39.0975C114.059 39.3153 113.975 39.5138 113.834 39.6932C113.706 39.8597 113.54 39.9749 113.335 40.039C113.13 40.0902 112.899 40.0518 112.643 39.9237C112.4 39.7828 112.144 39.6803 111.875 39.6163C111.619 39.5523 111.375 39.5202 111.145 39.5202C110.76 39.5202 110.421 39.5843 110.126 39.7124C109.832 39.8276 109.582 40.0006 109.377 40.2311C109.185 40.4489 109.031 40.7243 108.916 41.0573C108.813 41.3903 108.762 41.7746 108.762 42.2101C108.762 43.0555 108.967 43.7215 109.377 44.2083C109.8 44.6822 110.389 44.9192 111.145 44.9192C111.375 44.9192 111.619 44.8935 111.875 44.8423C112.131 44.7783 112.387 44.6758 112.643 44.5349C112.899 44.4068 113.13 44.3748 113.335 44.4388C113.54 44.5029 113.7 44.6246 113.815 44.8039C113.943 44.9704 114.014 45.1689 114.027 45.3995C114.052 45.6172 114.014 45.835 113.911 46.0527C113.822 46.2577 113.655 46.4178 113.412 46.5331C112.976 46.7508 112.541 46.9045 112.105 46.9942C111.67 47.0967 111.254 47.1479 110.856 47.1479ZM120.728 47.1479C119.613 47.1479 118.653 46.9494 117.846 46.5523C117.052 46.1424 116.437 45.5724 116.001 44.8423C115.579 44.0994 115.367 43.2284 115.367 42.2293C115.367 41.2558 115.572 40.404 115.982 39.6739C116.392 38.931 116.962 38.3546 117.692 37.9447C118.435 37.5221 119.274 37.3107 120.209 37.3107C120.888 37.3107 121.503 37.426 122.053 37.6565C122.604 37.8743 123.078 38.1945 123.475 38.6172C123.872 39.0271 124.173 39.533 124.378 40.1351C124.583 40.7243 124.686 41.3839 124.686 42.114C124.686 42.3574 124.609 42.5431 124.455 42.6712C124.301 42.7865 124.077 42.8441 123.783 42.8441H117.75V41.3455H122.591L122.284 41.6145C122.284 41.0893 122.207 40.6538 122.053 40.308C121.9 39.9493 121.676 39.6803 121.381 39.501C121.099 39.3217 120.747 39.232 120.324 39.232C119.85 39.232 119.447 39.3409 119.114 39.5587C118.781 39.7764 118.525 40.0902 118.345 40.5001C118.166 40.91 118.076 41.4031 118.076 41.9795V42.1332C118.076 43.1067 118.3 43.824 118.749 44.2851C119.21 44.7462 119.889 44.9768 120.785 44.9768C121.093 44.9768 121.445 44.9384 121.842 44.8615C122.239 44.7847 122.611 44.663 122.956 44.4965C123.251 44.3556 123.514 44.3107 123.744 44.362C123.975 44.4004 124.154 44.5029 124.282 44.6694C124.41 44.8359 124.481 45.028 124.493 45.2458C124.519 45.4635 124.474 45.6813 124.359 45.899C124.244 46.104 124.052 46.2769 123.783 46.4178C123.347 46.6612 122.854 46.8405 122.303 46.9558C121.765 47.0839 121.24 47.1479 120.728 47.1479ZM128.41 47.1095C127.936 47.1095 127.571 46.9814 127.315 46.7252C127.071 46.469 126.949 46.104 126.949 45.63V38.8093C126.949 38.3354 127.071 37.9768 127.315 37.7334C127.571 37.4772 127.923 37.3491 128.371 37.3491C128.832 37.3491 129.185 37.4772 129.428 37.7334C129.671 37.9768 129.793 38.3354 129.793 38.8093V39.9045L129.582 39.2705C129.876 38.6428 130.312 38.1625 130.888 37.8295C131.477 37.4836 132.143 37.3107 132.886 37.3107C133.642 37.3107 134.263 37.458 134.75 37.7526C135.237 38.0344 135.602 38.4699 135.845 39.0591C136.089 39.6355 136.21 40.372 136.21 41.2686V45.63C136.21 46.104 136.082 46.469 135.826 46.7252C135.583 46.9814 135.224 47.1095 134.75 47.1095C134.289 47.1095 133.93 46.9814 133.674 46.7252C133.431 46.469 133.309 46.104 133.309 45.63V41.4031C133.309 40.7499 133.187 40.2824 132.944 40.0006C132.713 39.706 132.355 39.5587 131.868 39.5587C131.253 39.5587 130.76 39.7508 130.389 40.1351C130.03 40.5193 129.851 41.0317 129.851 41.6721V45.63C129.851 46.6163 129.37 47.1095 128.41 47.1095ZM143.583 47.1479C142.699 47.1479 141.956 47.0006 141.354 46.706C140.765 46.4114 140.323 45.9823 140.028 45.4187C139.747 44.8551 139.606 44.1442 139.606 43.286V39.6739H138.799C138.44 39.6739 138.158 39.5779 137.953 39.3857C137.761 39.1936 137.665 38.931 137.665 38.598C137.665 38.2393 137.761 37.9704 137.953 37.791C138.158 37.5989 138.44 37.5028 138.799 37.5028H139.606V36.0426C139.606 35.5559 139.734 35.1908 139.99 34.9475C140.246 34.6913 140.605 34.5632 141.066 34.5632C141.54 34.5632 141.899 34.6913 142.142 34.9475C142.385 35.1908 142.507 35.5559 142.507 36.0426V37.5028H144.332C144.691 37.5028 144.966 37.5989 145.158 37.791C145.351 37.9704 145.447 38.2393 145.447 38.598C145.447 38.931 145.351 39.1936 145.158 39.3857C144.966 39.5779 144.691 39.6739 144.332 39.6739H142.507V43.1708C142.507 43.7087 142.629 44.1122 142.872 44.3812C143.128 44.6502 143.532 44.7847 144.082 44.7847C144.275 44.7847 144.454 44.7655 144.62 44.727C144.787 44.6886 144.941 44.663 145.082 44.6502C145.261 44.6374 145.408 44.695 145.523 44.8231C145.639 44.9384 145.696 45.201 145.696 45.6108C145.696 45.9182 145.645 46.1872 145.543 46.4178C145.44 46.6484 145.261 46.8149 145.005 46.9173C144.838 46.9814 144.608 47.0326 144.313 47.071C144.031 47.1223 143.788 47.1479 143.583 47.1479ZM152.102 47.1479C150.988 47.1479 150.027 46.9494 149.22 46.5523C148.426 46.1424 147.811 45.5724 147.376 44.8423C146.953 44.0994 146.742 43.2284 146.742 42.2293C146.742 41.2558 146.947 40.404 147.357 39.6739C147.767 38.931 148.337 38.3546 149.067 37.9447C149.81 37.5221 150.649 37.3107 151.584 37.3107C152.262 37.3107 152.877 37.426 153.428 37.6565C153.979 37.8743 154.453 38.1945 154.85 38.6172C155.247 39.0271 155.548 39.533 155.753 40.1351C155.958 40.7243 156.06 41.3839 156.06 42.114C156.06 42.3574 155.983 42.5431 155.83 42.6712C155.676 42.7865 155.452 42.8441 155.157 42.8441H149.124V41.3455H153.966L153.659 41.6145C153.659 41.0893 153.582 40.6538 153.428 40.308C153.274 39.9493 153.05 39.6803 152.756 39.501C152.474 39.3217 152.122 39.232 151.699 39.232C151.225 39.232 150.821 39.3409 150.488 39.5587C150.155 39.7764 149.899 40.0902 149.72 40.5001C149.541 40.91 149.451 41.4031 149.451 41.9795V42.1332C149.451 43.1067 149.675 43.824 150.123 44.2851C150.584 44.7462 151.263 44.9768 152.16 44.9768C152.467 44.9768 152.82 44.9384 153.217 44.8615C153.614 44.7847 153.985 44.663 154.331 44.4965C154.626 44.3556 154.888 44.3107 155.119 44.362C155.349 44.4004 155.529 44.5029 155.657 44.6694C155.785 44.8359 155.855 45.028 155.868 45.2458C155.894 45.4635 155.849 45.6813 155.734 45.899C155.618 46.104 155.426 46.2769 155.157 46.4178C154.722 46.6612 154.229 46.8405 153.678 46.9558C153.14 47.0839 152.615 47.1479 152.102 47.1479ZM159.823 47.1095C159.336 47.1095 158.965 46.9814 158.708 46.7252C158.452 46.469 158.324 46.104 158.324 45.63V38.8093C158.324 38.3354 158.446 37.9768 158.689 37.7334C158.945 37.4772 159.298 37.3491 159.746 37.3491C160.207 37.3491 160.559 37.4772 160.803 37.7334C161.046 37.9768 161.168 38.3354 161.168 38.8093V39.8084H160.976C161.129 39.0399 161.469 38.4443 161.994 38.0216C162.519 37.5989 163.198 37.3619 164.03 37.3107C164.351 37.2851 164.594 37.3683 164.761 37.5605C164.94 37.7398 165.036 38.0408 165.049 38.4635C165.074 38.8606 164.991 39.1744 164.799 39.405C164.62 39.6355 164.312 39.7764 163.877 39.8276L163.435 39.8661C162.705 39.9301 162.16 40.1415 161.802 40.5001C161.456 40.8588 161.283 41.3775 161.283 42.0564V45.63C161.283 46.104 161.155 46.469 160.899 46.7252C160.655 46.9814 160.297 47.1095 159.823 47.1095Z" fill="#005F75"/>
</svg>
