<svg width="147" height="40" viewBox="0 0 147 40" fill="none" xmlns="http://www.w3.org/2000/svg">
<path d="M48.3722 25.9469C48.5093 25.8503 48.6376 25.7888 48.7601 25.7624C48.8826 25.739 48.9759 25.7243 49.0459 25.7243C49.2121 25.7243 49.3609 25.7595 49.498 25.8269C49.635 25.8942 49.775 26.0436 49.9209 26.2662L51.557 28.7471C51.6066 28.8262 51.6533 28.9141 51.697 29.0108C51.7408 29.1074 51.7641 29.1865 51.7641 29.2451C51.7641 29.4706 51.6941 29.6552 51.5512 29.7958C51.4083 29.9364 51.2566 30.0623 51.0904 30.1707C50.2913 30.7272 49.4163 31.1754 48.4684 31.5122C47.5176 31.849 46.5143 32.0189 45.4527 32.0189C44.5748 32.0189 43.7319 31.9076 42.9182 31.6821C42.1045 31.4565 41.3462 31.1373 40.6462 30.7213C39.9463 30.3054 39.3017 29.8075 38.7184 29.2246C38.1351 28.6417 37.6363 27.9944 37.228 27.2797C36.8197 26.565 36.4989 25.7946 36.2714 24.9686C36.0439 24.1426 35.9272 23.2786 35.9272 22.3793C35.9272 21.4801 36.041 20.6131 36.2714 19.7812C36.4989 18.9494 36.8197 18.179 37.228 17.4702C37.6363 16.7614 38.1351 16.117 38.7184 15.5341C39.3017 14.9512 39.9463 14.4562 40.6462 14.0461C41.3462 13.636 42.1045 13.3168 42.9182 13.0912C43.7319 12.8657 44.5748 12.7544 45.4527 12.7544C46.5143 12.7544 47.4943 12.895 48.3955 13.1791C49.2967 13.4632 50.1425 13.8821 50.93 14.4415L50.8862 14.3976C51.0992 14.5235 51.2712 14.6729 51.3966 14.8457C51.5221 15.0156 51.5862 15.2295 51.5862 15.4843C51.5862 15.66 51.5279 15.8416 51.4112 16.0262L50.1104 18.2405C49.8363 18.7209 49.5067 18.9611 49.1159 18.9611C49.0284 18.9611 48.9205 18.9377 48.7951 18.8937C48.6697 18.8498 48.5268 18.7736 48.3722 18.6653C47.9434 18.3811 47.4826 18.1497 46.9926 17.9681C46.4997 17.7865 45.9777 17.6957 45.4235 17.6957C44.8111 17.6957 44.2453 17.8217 43.729 18.0707C43.2128 18.3196 42.7724 18.6594 42.4078 19.09C42.0433 19.5205 41.7574 20.0185 41.5533 20.5867C41.3491 21.155 41.247 21.7496 41.247 22.3764C41.247 23.0032 41.3491 23.6271 41.5533 24.1895C41.7574 24.7519 42.0433 25.2381 42.4078 25.6482C42.7724 26.0583 43.2128 26.3834 43.729 26.6236C44.2453 26.8637 44.8111 26.9838 45.4235 26.9838C45.9777 26.9838 46.4997 26.8872 46.9868 26.6909C47.4739 26.4947 47.9376 26.2457 48.3751 25.944L48.3722 25.9469Z" fill="#00ACD4"/>
<path d="M73.631 30.5983C73.631 30.7653 73.6018 30.9235 73.5435 31.0758C73.4852 31.2281 73.3889 31.3482 73.2519 31.436C73.1439 31.5444 73.0185 31.6118 72.8727 31.6411C72.7269 31.6704 72.5986 31.685 72.4936 31.685H69.6149C69.4108 31.685 69.2445 31.6587 69.1191 31.603C68.9937 31.5503 68.8916 31.4741 68.8129 31.3745C68.7341 31.2779 68.67 31.1578 68.6145 31.0143C68.562 30.8737 68.5037 30.7184 68.4454 30.5515L68.2558 29.8924C67.9933 30.156 67.6929 30.4167 67.3575 30.6686C67.0221 30.9235 66.6517 31.1519 66.2463 31.3511C65.8409 31.5503 65.4092 31.7114 64.9455 31.8344C64.4818 31.9574 64.0035 32.0189 63.5077 32.0189C62.621 32.0189 61.7723 31.9076 60.9586 31.6821C60.1449 31.4565 59.3866 31.1373 58.6808 30.7213C57.975 30.3054 57.3333 29.8075 56.7588 29.2246C56.1842 28.6417 55.6913 27.9944 55.2771 27.2797C54.863 26.565 54.5451 25.7946 54.3205 24.9686C54.0959 24.1426 53.9851 23.2786 53.9851 22.3793C53.9851 21.0202 54.233 19.7549 54.7317 18.5862C55.2276 17.4175 55.9042 16.4011 56.7617 15.5341C57.6191 14.6671 58.6253 13.9875 59.7861 13.4954C60.944 13.0004 62.1865 12.7544 63.5106 12.7544C64.1143 12.7544 64.6772 12.8217 65.1993 12.9594C65.7213 13.0971 66.1967 13.2816 66.6313 13.5159C67.0658 13.7503 67.4567 14.0315 67.8067 14.3595C68.1566 14.6876 68.4629 15.042 68.7283 15.4228L69.1512 14.0871C69.2474 13.844 69.3291 13.6448 69.3933 13.4925C69.4574 13.3402 69.5245 13.2289 69.5974 13.1557C69.6703 13.0824 69.7607 13.0326 69.8687 13.0092C69.9766 12.9858 70.1253 12.9711 70.3207 12.9711H72.4965C72.6044 12.9711 72.7298 12.9858 72.8756 13.0151C73.0215 13.0444 73.1469 13.1117 73.2548 13.2201C73.3919 13.3285 73.4881 13.4486 73.5464 13.5862C73.6048 13.7239 73.6339 13.8791 73.6339 14.0549V30.5895L73.631 30.5983ZM59.2407 22.3823C59.2407 23.0267 59.3399 23.633 59.5411 24.1954C59.7395 24.7577 60.0253 25.244 60.3957 25.654C60.7661 26.0641 61.2123 26.3892 61.7315 26.6294C62.2535 26.8696 62.8281 26.9897 63.4639 26.9897C64.0997 26.9897 64.7239 26.8696 65.2838 26.6294C65.8438 26.3892 66.3309 26.0641 66.745 25.654C67.1592 25.244 67.4829 24.7577 67.7162 24.1954C67.9496 23.633 68.0662 23.0296 68.0662 22.3823C68.0662 21.7349 67.9496 21.1608 67.7162 20.5926C67.4829 20.0244 67.1592 19.5264 66.745 19.0958C66.3309 18.6653 65.8438 18.3255 65.2838 18.0765C64.7239 17.8275 64.1172 17.7016 63.4639 17.7016C62.8106 17.7016 62.2535 17.8275 61.7315 18.0765C61.2094 18.3255 60.7661 18.6653 60.3957 19.0958C60.0253 19.5264 59.7395 20.0244 59.5411 20.5926C59.3428 21.1608 59.2407 21.7554 59.2407 22.3823Z" fill="#00ACD4"/>
<path d="M77.1406 14.1368C77.1406 13.9522 77.1756 13.7882 77.2427 13.6535C77.3098 13.5158 77.4002 13.4045 77.5139 13.3166C77.6248 13.2288 77.7531 13.1614 77.8931 13.1174C78.0331 13.0735 78.1731 13.0501 78.3101 13.0501H80.5151C80.7571 13.0501 80.9525 13.1233 81.0984 13.2698C81.2442 13.4162 81.3696 13.6037 81.4717 13.8263C81.5738 14.0518 81.6642 14.3008 81.7429 14.5732C81.8217 14.8485 81.9121 15.1121 82.02 15.3641C82.3117 15.0419 82.6004 14.7226 82.8891 14.4092C83.175 14.0958 83.4841 13.8175 83.8166 13.5744C84.1462 13.3313 84.5107 13.1321 84.9045 12.9798C85.2982 12.8275 85.7503 12.7513 86.2548 12.7513C86.7594 12.7513 87.2494 12.7894 87.6635 12.8685C88.0777 12.9476 88.4685 13.0618 88.8389 13.2141C89.2093 13.3664 89.5768 13.5597 89.9414 13.7941C90.3059 14.0284 90.7026 14.3037 91.1313 14.6142C91.5513 14.8602 91.7584 15.1473 91.7584 15.4812C91.7584 15.695 91.6767 15.9469 91.5105 16.2281L90.1805 18.5011C89.918 18.8819 89.5914 19.0723 89.2006 19.0723C89.0051 19.0723 88.7864 19.0195 88.5443 18.9112C88.1243 18.5011 87.6985 18.1935 87.2669 17.9944C86.8323 17.7952 86.3394 17.6927 85.7853 17.6927C85.4061 17.6927 85.0707 17.7454 84.7849 17.8538C84.4991 17.9621 84.2366 18.1145 84.0033 18.3078C83.7699 18.504 83.5512 18.7383 83.347 19.0108C83.1429 19.2861 82.9387 19.5878 82.7346 19.9217V30.5455C82.7346 30.9175 82.6441 31.1986 82.4633 31.389C82.2825 31.5794 81.9821 31.6761 81.565 31.6761H78.2781C77.5198 31.6761 77.1377 31.3012 77.1377 30.5455V14.128L77.1406 14.1368Z" fill="#00ACD4"/>
<path d="M95.0772 10.1448C95.0772 9.84315 95.1764 9.61468 95.3776 9.46237C95.5759 9.31006 95.8618 9.16654 96.2322 9.02887L99.5483 7.86895C99.5979 7.86017 99.6416 7.85431 99.6854 7.85431H99.8108C100.17 7.85431 100.412 7.95976 100.534 8.17065C100.657 8.38154 100.718 8.65688 100.718 8.99958L100.703 13.0358H102.704C103.016 13.0358 103.27 13.1296 103.462 13.3141C103.658 13.4986 103.754 13.7798 103.754 14.1518V16.9842C103.754 17.3943 103.655 17.696 103.462 17.8864C103.267 18.0768 103.013 18.1735 102.704 18.1735H100.703L100.718 30.5576C100.718 30.9296 100.61 31.2108 100.397 31.4012C100.181 31.5916 99.8866 31.6882 99.5045 31.6882H96.203C95.4534 31.6882 95.0772 31.3133 95.0772 30.5576L95.0626 18.1735H93.5577C92.8081 18.1735 92.4319 17.778 92.4319 16.9842V14.1518C92.4319 13.4078 92.8052 13.0358 93.5577 13.0358H95.0626L95.0772 10.1448Z" fill="#00ACD4"/>
<path d="M123.075 31.3943C122.95 31.5027 122.815 31.57 122.673 31.5993C122.53 31.6286 122.398 31.6432 122.27 31.6432H120.065C119.89 31.6432 119.739 31.611 119.613 31.5466C119.488 31.4821 119.38 31.3972 119.292 31.2918C119.205 31.1834 119.132 31.0633 119.074 30.9256C119.015 30.788 118.966 30.6474 118.928 30.5009L118.621 29.0657C118.476 29.3674 118.231 29.6866 117.892 30.0235C117.551 30.3603 117.131 30.6708 116.629 30.952C116.128 31.2361 115.55 31.4704 114.897 31.655C114.244 31.8395 113.532 31.9332 112.765 31.9332C111.654 31.9332 110.671 31.7194 109.813 31.2888C108.956 30.8583 108.233 30.2724 107.644 29.5285C107.054 28.7845 106.608 27.9175 106.308 26.9245C106.007 25.9315 105.856 24.8741 105.856 23.7494V14.1391C105.856 13.7671 105.934 13.4859 106.098 13.2955C106.258 13.1051 106.515 13.0085 106.865 13.0085H110.239C110.659 13.0085 110.945 13.0788 111.103 13.2223C111.257 13.3658 111.336 13.6411 111.336 14.0512V23.6117C111.336 24.0335 111.418 24.4319 111.578 24.8097C111.738 25.1876 111.954 25.5185 112.228 25.8085C112.5 26.0985 112.82 26.324 113.185 26.491C113.55 26.658 113.937 26.74 114.346 26.74C114.696 26.74 115.075 26.6814 115.486 26.5642C115.894 26.4471 116.277 26.2625 116.627 26.0136C116.977 25.7646 117.268 25.4424 117.504 25.0528C117.738 24.6603 117.854 24.1917 117.854 23.6439V14.0981C117.854 13.9311 117.886 13.7642 117.948 13.6001C118.012 13.4332 118.105 13.3072 118.234 13.2193C118.359 13.1403 118.479 13.0875 118.592 13.0582C118.706 13.029 118.834 13.0143 118.98 13.0143H122.282C122.702 13.0143 123.002 13.1168 123.189 13.3219C123.373 13.5269 123.466 13.8022 123.466 14.1449V30.5653C123.466 30.7499 123.425 30.9227 123.34 31.0779C123.256 31.2332 123.142 31.3562 122.996 31.4441L123.084 31.4001L123.075 31.3943Z" fill="#00ACD4"/>
<path d="M127.993 13.2265C128.118 13.1182 128.249 13.0508 128.386 13.0215C128.524 12.9922 128.655 12.9776 128.78 12.9776H130.985C131.169 12.9776 131.323 13.0069 131.446 13.0654C131.568 13.124 131.668 13.206 131.746 13.3086C131.825 13.4111 131.889 13.5282 131.945 13.66C131.997 13.7919 132.05 13.9354 132.099 14.0935L132.712 15.8686C132.983 15.5171 133.26 15.1568 133.537 14.7907C133.814 14.4245 134.144 14.0906 134.523 13.7919C134.902 13.4931 135.357 13.247 135.882 13.0508C136.407 12.8545 137.052 12.7579 137.81 12.7579C139.146 12.7579 140.373 13.0039 141.499 13.4989C142.625 13.994 143.593 14.6735 144.407 15.5376C145.221 16.4046 145.857 17.421 146.314 18.5897C146.772 19.7584 147 21.0237 147 22.3828C147 23.7419 146.772 24.9956 146.314 26.1672C145.857 27.3388 145.221 28.3611 144.407 29.2252C143.593 30.0922 142.625 30.7717 141.499 31.2726C140.373 31.7735 139.146 32.0195 137.81 32.0195C137.177 32.0195 136.632 31.9434 136.174 31.791C135.716 31.6387 135.31 31.4425 134.955 31.1964C134.599 30.9533 134.284 30.6839 134.012 30.3909C133.738 30.098 133.473 29.8051 133.21 29.5093V36.3458C133.21 36.6387 133.123 36.8876 132.948 37.0927C132.773 37.2977 132.499 37.4002 132.131 37.4002H128.786C128.669 37.4002 128.544 37.3768 128.407 37.327C128.27 37.2772 128.144 37.2098 128.028 37.122C127.911 37.0341 127.815 36.9228 127.736 36.791C127.657 36.6592 127.619 36.5098 127.619 36.3428V14.0643C127.619 13.868 127.654 13.7069 127.727 13.581C127.8 13.455 127.891 13.3378 127.999 13.2295L127.993 13.2265ZM141.639 22.3828C141.639 21.756 141.537 21.1643 141.333 20.599C141.129 20.0367 140.84 19.5446 140.47 19.1257C140.099 18.7039 139.656 18.3729 139.14 18.1269C138.624 17.8838 138.055 17.7608 137.431 17.7608C136.807 17.7608 136.235 17.875 135.684 18.1064C135.132 18.3349 134.651 18.6483 134.237 19.0466C133.823 19.442 133.487 19.9107 133.228 20.4467C132.971 20.9857 132.825 21.5568 132.796 22.1632V22.3828C132.796 23.0272 132.919 23.6365 133.161 24.2018C133.403 24.77 133.735 25.2592 134.155 25.6751C134.575 26.0911 135.065 26.422 135.631 26.6652C136.197 26.9083 136.795 27.0313 137.428 27.0313C138.061 27.0313 138.621 26.9083 139.137 26.6652C139.653 26.422 140.096 26.0911 140.467 25.6751C140.837 25.2592 141.123 24.7671 141.33 24.2018C141.534 23.6336 141.636 23.0272 141.636 22.3828H141.639Z" fill="#00ACD4"/>
<path d="M22.7433 9.81687C22.7029 9.81687 22.6597 9.81687 22.6164 9.81108C21.9334 9.74162 21.4319 9.128 21.5011 8.44202C21.5213 8.22204 21.9766 2.97734 18.1003 2.52871C16.4979 2.34346 15.2989 3.0497 14.4401 4.68505C13.7311 6.03386 13.5495 7.49265 13.5495 7.50712C13.4717 8.1931 12.8578 8.68515 12.1719 8.607C11.4889 8.52885 10.9989 7.90944 11.0767 7.22346C11.0854 7.14532 11.3044 5.30157 12.2382 3.52149C13.5726 0.9744 15.7543 -0.258625 18.3856 0.0452898C23.4378 0.627069 24.2563 5.95571 23.9825 8.69383C23.9191 9.33929 23.3773 9.81976 22.7461 9.81976L22.7433 9.81687Z" fill="#EC008C"/>
<path d="M26.7291 33.7713C26.6513 33.7713 26.5764 33.7656 26.4986 33.7569L8.37626 31.5282C7.85173 31.4645 7.37907 31.1808 7.07069 30.7525C6.76231 30.3212 6.64703 29.7828 6.75079 29.2618L9.98156 13.302C10.1891 12.2716 11.1891 11.6058 12.2151 11.8171C13.2412 12.0255 13.9011 13.0299 13.6936 14.0603L10.8721 28.0028L24.9596 29.7365L25.6138 18.813C25.6772 17.7652 26.5764 16.9663 27.6197 17.0271C28.663 17.0908 29.4584 17.9909 29.3979 19.0416L28.6226 31.9826C28.5909 32.5065 28.346 32.9956 27.9454 33.3314C27.6024 33.6179 27.173 33.7713 26.732 33.7713H26.7291Z" fill="#EC008C"/>
<path d="M26.3397 40C26.259 40 26.1783 39.9942 26.0976 39.9855L5.17389 37.3024C1.98635 36.9348 -0.327936 34.0056 0.0380836 30.7784C0.0438477 30.7263 0.0524938 30.6742 0.06114 30.625L4.07583 10.3611C4.27181 8.83283 5.04132 7.46377 6.24601 6.50282C7.47377 5.5245 9.00702 5.08455 10.5633 5.264L24.351 7.00645C25.8872 7.18301 27.2821 7.96161 28.2562 9.19174C29.2303 10.4248 29.6684 11.9646 29.4897 13.5276C29.3716 14.5725 28.4291 15.3221 27.3916 15.2006C26.3512 15.0819 25.6047 14.1383 25.7258 13.0934C25.7892 12.5406 25.6336 11.9935 25.2877 11.5565C24.9419 11.1194 24.449 10.8445 23.8986 10.7808L10.1108 9.03833C8.99261 8.90808 7.96083 9.733 7.83114 10.8763C7.82538 10.9284 7.81673 10.9805 7.80808 11.0297L3.79916 31.2733C3.70693 32.3906 4.51679 33.392 5.63214 33.5194L26.5789 36.2054C27.6164 36.3386 28.3513 37.2908 28.2187 38.3328C28.0977 39.2938 27.2821 39.9942 26.3425 39.9942L26.3397 40Z" fill="#EC008C"/>
</svg>
